<mxfile host="app.diagrams.net" agent="Mozilla/5.0 (Macintosh; Intel Mac OS X 10.15; rv:131.0) Gecko/20100101 Firefox/131.0" version="24.8.0">
  <diagram name="Page-1" id="HfuWmbCm5bsbyxA2cTyK">
    <mxGraphModel dx="1290" dy="561" grid="1" gridSize="10" guides="1" tooltips="1" connect="1" arrows="1" fold="1" page="1" pageScale="1" pageWidth="850" pageHeight="1100" math="0" shadow="0">
      <root>
        <mxCell id="0" />
        <mxCell id="1" parent="0" />
        <mxCell id="h_BCHXKBnSZ3QPI82Oxl-5" value="" style="edgeStyle=orthogonalEdgeStyle;rounded=0;orthogonalLoop=1;jettySize=auto;html=1;" edge="1" parent="1" source="h_BCHXKBnSZ3QPI82Oxl-1" target="h_BCHXKBnSZ3QPI82Oxl-4">
          <mxGeometry relative="1" as="geometry" />
        </mxCell>
        <mxCell id="h_BCHXKBnSZ3QPI82Oxl-1" value="Home screen" style="rounded=0;whiteSpace=wrap;html=1;" vertex="1" parent="1">
          <mxGeometry x="40" y="190" width="120" height="60" as="geometry" />
        </mxCell>
        <mxCell id="h_BCHXKBnSZ3QPI82Oxl-7" value="" style="edgeStyle=orthogonalEdgeStyle;rounded=0;orthogonalLoop=1;jettySize=auto;html=1;" edge="1" parent="1" source="h_BCHXKBnSZ3QPI82Oxl-4" target="h_BCHXKBnSZ3QPI82Oxl-6">
          <mxGeometry relative="1" as="geometry" />
        </mxCell>
        <mxCell id="h_BCHXKBnSZ3QPI82Oxl-4" value="Select Category" style="rhombus;whiteSpace=wrap;html=1;" vertex="1" parent="1">
          <mxGeometry x="200" y="180" width="80" height="80" as="geometry" />
        </mxCell>
        <mxCell id="h_BCHXKBnSZ3QPI82Oxl-6" value="Race screen" style="rounded=0;whiteSpace=wrap;html=1;" vertex="1" parent="1">
          <mxGeometry x="320" y="190" width="120" height="60" as="geometry" />
        </mxCell>
        <mxCell id="h_BCHXKBnSZ3QPI82Oxl-8" value="" style="rhombus;whiteSpace=wrap;html=1;" vertex="1" parent="1">
          <mxGeometry x="480" y="180" width="80" height="80" as="geometry" />
        </mxCell>
      </root>
    </mxGraphModel>
  </diagram>
</mxfile>
